<svg width="252" height="206" viewBox="0 0 252 206" fill="none" xmlns="http://www.w3.org/2000/svg">
    <path d="M67.6821 146.209C50.1918 133.427 18.642 92.527 32.3652 31.1765C39.7649 26.4675 66.8748 19.875 116.117 31.1765C158.497 43.2852 190.787 13.0135 211.977 5.95011C233.167 -1.11327 245.276 31.1765 251.33 103.828C246.285 135.109 211.977 223.906 175.651 201.707C161.524 165.381 139.527 160.739 67.6821 146.209Z"
          fill="#F0F6FF"/>
    <g filter="url(#filter0_d)">
        <path d="M220 91H72V60H193" stroke="#0500FF" stroke-width="2"/>
    </g>
    <g filter="url(#filter1_d)">
        <path d="M130.5 8.5H127H40V165H27.5V8.5V1.5H130.5V8.5Z" fill="#0500FF"/>
        <path d="M127 15.5L192 59M127 15.5V8.5H130.5M127 15.5L66.5 59L70 77M130.5 8.5V1.5H27.5V8.5M130.5 8.5H40M27.5 8.5V165M27.5 8.5H40M27.5 165H40V8.5M27.5 165H4.5H140"
              stroke="#0500FF" stroke-width="2"/>
    </g>
    <path d="M88.0879 78.5635C86.9622 78.2399 86.1419 77.8434 85.627 77.374C85.1165 76.9001 84.8613 76.3167 84.8613 75.624C84.8613 74.8402 85.1735 74.193 85.7979 73.6826C86.4268 73.1676 87.2425 72.9102 88.2451 72.9102C88.9287 72.9102 89.5371 73.0423 90.0703 73.3066C90.6081 73.571 91.0228 73.9355 91.3145 74.4004C91.6107 74.8652 91.7588 75.3734 91.7588 75.9248H90.4395C90.4395 75.3232 90.248 74.8516 89.8652 74.5098C89.4824 74.1634 88.9424 73.9902 88.2451 73.9902C87.598 73.9902 87.0921 74.1338 86.7275 74.4209C86.3675 74.7035 86.1875 75.0977 86.1875 75.6035C86.1875 76.0091 86.3584 76.3532 86.7002 76.6357C87.0465 76.9137 87.6322 77.1689 88.457 77.4014C89.2865 77.6338 89.9336 77.8913 90.3984 78.1738C90.8678 78.4518 91.2142 78.7777 91.4375 79.1514C91.6654 79.5251 91.7793 79.9648 91.7793 80.4707C91.7793 81.2773 91.4648 81.9245 90.8359 82.4121C90.207 82.8952 89.3662 83.1367 88.3135 83.1367C87.6299 83.1367 86.9919 83.0068 86.3994 82.7471C85.807 82.4827 85.349 82.1227 85.0254 81.667C84.7064 81.2113 84.5469 80.694 84.5469 80.1152H85.8662C85.8662 80.7168 86.0872 81.193 86.5293 81.5439C86.9759 81.8903 87.5706 82.0635 88.3135 82.0635C89.0062 82.0635 89.5371 81.9222 89.9062 81.6396C90.2754 81.3571 90.46 80.972 90.46 80.4844C90.46 79.9967 90.2891 79.6208 89.9473 79.3564C89.6055 79.0876 88.9857 78.8232 88.0879 78.5635ZM93.5225 83.8545H92.4355L96.5918 73.0469H97.6719L93.5225 83.8545ZM102.484 76.8613L104.87 73.0469H106.415L103.271 77.9824L106.49 83H104.932L102.484 79.1172L100.023 83H98.4717L101.698 77.9824L98.5469 73.0469H100.085L102.484 76.8613ZM111.262 76.8613L113.647 73.0469H115.192L112.048 77.9824L115.268 83H113.709L111.262 79.1172L108.801 83H107.249L110.476 77.9824L107.324 73.0469H108.862L111.262 76.8613ZM120.039 76.8613L122.425 73.0469H123.97L120.825 77.9824L124.045 83H122.486L120.039 79.1172L117.578 83H116.026L119.253 77.9824L116.102 73.0469H117.64L120.039 76.8613ZM125.624 83.8545H124.537L128.693 73.0469H129.773L125.624 83.8545ZM134.586 76.8613L136.972 73.0469H138.517L135.372 77.9824L138.592 83H137.033L134.586 79.1172L132.125 83H130.573L133.8 77.9824L130.648 73.0469H132.187L134.586 76.8613ZM143.363 76.8613L145.749 73.0469H147.294L144.149 77.9824L147.369 83H145.811L143.363 79.1172L140.902 83H139.351L142.577 77.9824L139.426 73.0469H140.964L143.363 76.8613ZM152.141 76.8613L154.526 73.0469H156.071L152.927 77.9824L156.146 83H154.588L152.141 79.1172L149.68 83H148.128L151.354 77.9824L148.203 73.0469H149.741L152.141 76.8613ZM157.726 83.8545H156.639L160.795 73.0469H161.875L157.726 83.8545ZM166.476 78.0439L169.073 73.0469H170.563L167.132 79.2881V83H165.819V79.2881L162.388 73.0469H163.892L166.476 78.0439ZM175.007 78.0439L177.604 73.0469H179.095L175.663 79.2881V83H174.351V79.2881L170.919 73.0469H172.423L175.007 78.0439ZM183.538 78.0439L186.136 73.0469H187.626L184.194 79.2881V83H182.882V79.2881L179.45 73.0469H180.954L183.538 78.0439Z"
          fill="black"/>
    <defs>
        <filter id="filter0_d" x="67" y="59" width="157" height="41" filterUnits="userSpaceOnUse"
                color-interpolation-filters="sRGB">
            <feFlood flood-opacity="0" result="BackgroundImageFix"/>
            <feColorMatrix in="SourceAlpha" type="matrix" values="0 0 0 0 0 0 0 0 0 0 0 0 0 0 0 0 0 0 127 0"/>
            <feOffset dy="4"/>
            <feGaussianBlur stdDeviation="2"/>
            <feColorMatrix type="matrix" values="0 0 0 0 0 0 0 0 0 0 0 0 0 0 0 0 0 0 0.25 0"/>
            <feBlend mode="normal" in2="BackgroundImageFix" result="effect1_dropShadow"/>
            <feBlend mode="normal" in="SourceGraphic" in2="effect1_dropShadow" result="shape"/>
        </filter>
        <filter id="filter1_d" x="0.5" y="0.5" width="196.056" height="173.5" filterUnits="userSpaceOnUse"
                color-interpolation-filters="sRGB">
            <feFlood flood-opacity="0" result="BackgroundImageFix"/>
            <feColorMatrix in="SourceAlpha" type="matrix" values="0 0 0 0 0 0 0 0 0 0 0 0 0 0 0 0 0 0 127 0"/>
            <feOffset dy="4"/>
            <feGaussianBlur stdDeviation="2"/>
            <feColorMatrix type="matrix" values="0 0 0 0 0 0 0 0 0 0 0 0 0 0 0 0 0 0 0.25 0"/>
            <feBlend mode="normal" in2="BackgroundImageFix" result="effect1_dropShadow"/>
            <feBlend mode="normal" in="SourceGraphic" in2="effect1_dropShadow" result="shape"/>
        </filter>
    </defs>
</svg>