<svg width="411" height="322" viewBox="0 0 411 322" fill="none" xmlns="http://www.w3.org/2000/svg">
    <path d="M147 53H408.5C409.605 53 410.5 53.8954 410.5 55V105M410.5 243V105M410.5 105H205.5" stroke="#A9A9A9"/>
    <g filter="url(#filter0_d)">
        <rect x="242.5" y="58" width="94" height="42" rx="6" fill="#0500FF"/>
        <rect x="243.5" y="59" width="92" height="40" rx="5" stroke="#0500FF" stroke-width="2"/>
    </g>
    <path d="M277.714 81.4365C277.714 80.999 277.559 80.6618 277.249 80.4248C276.944 80.1878 276.39 79.9486 275.588 79.707C274.786 79.4655 274.148 79.1966 273.674 78.9004C272.767 78.3307 272.313 77.5879 272.313 76.6719C272.313 75.8698 272.639 75.209 273.291 74.6895C273.947 74.1699 274.797 73.9102 275.841 73.9102C276.534 73.9102 277.151 74.0378 277.693 74.293C278.236 74.5482 278.662 74.9128 278.972 75.3867C279.282 75.8561 279.437 76.3779 279.437 76.9521H277.714C277.714 76.4326 277.55 76.027 277.222 75.7354C276.898 75.4391 276.433 75.291 275.827 75.291C275.262 75.291 274.822 75.4118 274.508 75.6533C274.198 75.8949 274.043 76.2321 274.043 76.665C274.043 77.0296 274.212 77.335 274.549 77.5811C274.886 77.8226 275.442 78.0596 276.217 78.292C276.992 78.5199 277.614 78.7819 278.083 79.0781C278.552 79.3698 278.896 79.707 279.115 80.0898C279.334 80.4681 279.443 80.9124 279.443 81.4229C279.443 82.2523 279.124 82.9131 278.486 83.4053C277.853 83.8929 276.992 84.1367 275.902 84.1367C275.182 84.1367 274.519 84.0046 273.913 83.7402C273.312 83.4714 272.842 83.1022 272.505 82.6328C272.172 82.1634 272.006 81.6165 272.006 80.9922H273.735C273.735 81.5573 273.922 81.9948 274.296 82.3047C274.67 82.6146 275.205 82.7695 275.902 82.7695C276.504 82.7695 276.955 82.6488 277.256 82.4072C277.561 82.1611 277.714 81.8376 277.714 81.4365ZM282.567 84H280.906V76.6035H282.567V84ZM280.804 74.6826C280.804 74.4274 280.883 74.2155 281.043 74.0469C281.207 73.8783 281.439 73.7939 281.74 73.7939C282.041 73.7939 282.273 73.8783 282.438 74.0469C282.602 74.2155 282.684 74.4274 282.684 74.6826C282.684 74.9333 282.602 75.1429 282.438 75.3115C282.273 75.4756 282.041 75.5576 281.74 75.5576C281.439 75.5576 281.207 75.4756 281.043 75.3115C280.883 75.1429 280.804 74.9333 280.804 74.6826ZM284.092 80.2471C284.092 79.0986 284.361 78.1826 284.898 77.499C285.441 76.8109 286.159 76.4668 287.052 76.4668C287.895 76.4668 288.558 76.7607 289.041 77.3486L289.116 76.6035H290.613V83.7744C290.613 84.7451 290.31 85.5107 289.704 86.0713C289.103 86.6318 288.289 86.9121 287.264 86.9121C286.721 86.9121 286.19 86.7982 285.671 86.5703C285.156 86.347 284.764 86.0531 284.495 85.6885L285.281 84.6904C285.792 85.2965 286.421 85.5996 287.168 85.5996C287.719 85.5996 288.155 85.4492 288.474 85.1484C288.793 84.8522 288.952 84.4147 288.952 83.8359V83.3369C288.474 83.8701 287.836 84.1367 287.038 84.1367C286.172 84.1367 285.464 83.7926 284.912 83.1045C284.365 82.4163 284.092 81.4639 284.092 80.2471ZM285.746 80.3906C285.746 81.1335 285.896 81.7191 286.197 82.1475C286.503 82.5713 286.924 82.7832 287.462 82.7832C288.132 82.7832 288.629 82.4961 288.952 81.9219V78.668C288.638 78.1074 288.146 77.8271 287.476 77.8271C286.929 77.8271 286.503 78.0436 286.197 78.4766C285.896 78.9095 285.746 79.5475 285.746 80.3906ZM293.867 76.6035L293.915 77.458C294.462 76.7972 295.18 76.4668 296.068 76.4668C297.609 76.4668 298.393 77.3486 298.42 79.1123V84H296.759V79.208C296.759 78.7386 296.656 78.3923 296.451 78.1689C296.251 77.9411 295.92 77.8271 295.46 77.8271C294.79 77.8271 294.291 78.1302 293.963 78.7363V84H292.302V76.6035H293.867ZM302.104 84H300.382V74.0469H302.104V84ZM305.611 76.6035L305.659 77.458C306.206 76.7972 306.924 76.4668 307.812 76.4668C309.353 76.4668 310.137 77.3486 310.164 79.1123V84H308.503V79.208C308.503 78.7386 308.4 78.3923 308.195 78.1689C307.995 77.9411 307.664 77.8271 307.204 77.8271C306.534 77.8271 306.035 78.1302 305.707 78.7363V84H304.046V76.6035H305.611Z"
          fill="white"/>
    <circle cx="377" cy="78.5" r="21.5" fill="#C4C4C4"/>
    <g filter="url(#filter1_d)">
        <rect x="4" y="136" width="323" height="178" rx="4" fill="white"/>
    </g>
    <rect x="29.5" y="165.5" width="274" height="37" rx="2.5" fill="#F0F6FF" stroke="#0500FF"/>
    <rect x="28.5" y="220.5" width="274" height="37" rx="2.5" fill="#F0F6FF" stroke="#0500FF"/>
    <path d="M53.4678 239.104V243H52.1553V233.047H55.8262C56.9154 233.047 57.7676 233.325 58.3828 233.881C59.0026 234.437 59.3125 235.173 59.3125 236.089C59.3125 237.055 59.0094 237.8 58.4033 238.324C57.8018 238.844 56.9382 239.104 55.8125 239.104H53.4678ZM53.4678 238.03H55.8262C56.528 238.03 57.0658 237.866 57.4395 237.538C57.8132 237.205 58 236.727 58 236.103C58 235.51 57.8132 235.036 57.4395 234.681C57.0658 234.325 56.5531 234.141 55.9014 234.127H53.4678V238.03ZM65.2734 243C65.2005 242.854 65.1413 242.594 65.0957 242.221C64.5078 242.831 63.806 243.137 62.9902 243.137C62.2611 243.137 61.6618 242.932 61.1924 242.521C60.7275 242.107 60.4951 241.583 60.4951 240.949C60.4951 240.179 60.7868 239.582 61.3701 239.158C61.958 238.73 62.7829 238.516 63.8447 238.516H65.0752V237.935C65.0752 237.493 64.943 237.142 64.6787 236.882C64.4144 236.618 64.0247 236.485 63.5098 236.485C63.0586 236.485 62.6803 236.599 62.375 236.827C62.0697 237.055 61.917 237.331 61.917 237.654H60.6455C60.6455 237.285 60.7754 236.93 61.0352 236.588C61.2995 236.242 61.6549 235.968 62.1016 235.768C62.5527 235.567 63.0472 235.467 63.585 235.467C64.4372 235.467 65.1048 235.681 65.5879 236.109C66.071 236.533 66.3216 237.119 66.3398 237.866V241.271C66.3398 241.95 66.4264 242.49 66.5996 242.891V243H65.2734ZM63.1748 242.036C63.5713 242.036 63.9473 241.934 64.3027 241.729C64.6582 241.523 64.9157 241.257 65.0752 240.929V239.411H64.084C62.5345 239.411 61.7598 239.865 61.7598 240.771C61.7598 241.168 61.8919 241.478 62.1562 241.701C62.4206 241.924 62.7601 242.036 63.1748 242.036ZM72.6289 241.038C72.6289 240.696 72.499 240.432 72.2393 240.245C71.984 240.054 71.5352 239.89 70.8926 239.753C70.2546 239.616 69.7464 239.452 69.3682 239.261C68.9945 239.069 68.7165 238.841 68.5342 238.577C68.3564 238.313 68.2676 237.998 68.2676 237.634C68.2676 237.028 68.5228 236.515 69.0332 236.096C69.5482 235.676 70.2044 235.467 71.002 235.467C71.8405 235.467 72.5195 235.683 73.0391 236.116C73.5632 236.549 73.8252 237.103 73.8252 237.777H72.5537C72.5537 237.431 72.4056 237.132 72.1094 236.882C71.8177 236.631 71.4486 236.506 71.002 236.506C70.5417 236.506 70.1816 236.606 69.9219 236.807C69.6621 237.007 69.5322 237.269 69.5322 237.593C69.5322 237.898 69.653 238.128 69.8945 238.283C70.1361 238.438 70.5713 238.586 71.2002 238.728C71.8337 238.869 72.3464 239.037 72.7383 239.233C73.1302 239.429 73.4196 239.666 73.6064 239.944C73.7979 240.218 73.8936 240.553 73.8936 240.949C73.8936 241.61 73.6292 242.141 73.1006 242.542C72.5719 242.938 71.8861 243.137 71.043 243.137C70.4505 243.137 69.9264 243.032 69.4707 242.822C69.015 242.613 68.6572 242.321 68.3975 241.947C68.1423 241.569 68.0146 241.161 68.0146 240.724H69.2793C69.3021 241.147 69.4707 241.485 69.7852 241.735C70.1042 241.981 70.5234 242.104 71.043 242.104C71.5215 242.104 71.9043 242.009 72.1914 241.817C72.4831 241.621 72.6289 241.362 72.6289 241.038ZM79.8477 241.038C79.8477 240.696 79.7178 240.432 79.458 240.245C79.2028 240.054 78.7539 239.89 78.1113 239.753C77.4733 239.616 76.9652 239.452 76.5869 239.261C76.2132 239.069 75.9352 238.841 75.7529 238.577C75.5752 238.313 75.4863 237.998 75.4863 237.634C75.4863 237.028 75.7415 236.515 76.252 236.096C76.7669 235.676 77.4232 235.467 78.2207 235.467C79.0592 235.467 79.7383 235.683 80.2578 236.116C80.7819 236.549 81.0439 237.103 81.0439 237.777H79.7725C79.7725 237.431 79.6243 237.132 79.3281 236.882C79.0365 236.631 78.6673 236.506 78.2207 236.506C77.7604 236.506 77.4004 236.606 77.1406 236.807C76.8809 237.007 76.751 237.269 76.751 237.593C76.751 237.898 76.8717 238.128 77.1133 238.283C77.3548 238.438 77.79 238.586 78.4189 238.728C79.0524 238.869 79.5651 239.037 79.957 239.233C80.349 239.429 80.6383 239.666 80.8252 239.944C81.0166 240.218 81.1123 240.553 81.1123 240.949C81.1123 241.61 80.848 242.141 80.3193 242.542C79.7907 242.938 79.1048 243.137 78.2617 243.137C77.6693 243.137 77.1452 243.032 76.6895 242.822C76.2337 242.613 75.876 242.321 75.6162 241.947C75.361 241.569 75.2334 241.161 75.2334 240.724H76.498C76.5208 241.147 76.6895 241.485 77.0039 241.735C77.3229 241.981 77.7422 242.104 78.2617 242.104C78.7402 242.104 79.123 242.009 79.4102 241.817C79.7018 241.621 79.8477 241.362 79.8477 241.038ZM89.3086 241.257L90.7305 235.604H91.9951L89.8418 243H88.8164L87.0186 237.395L85.2686 243H84.2432L82.0967 235.604H83.3545L84.8105 241.141L86.5332 235.604H87.5518L89.3086 241.257ZM92.9521 239.233C92.9521 238.509 93.0934 237.857 93.376 237.278C93.6631 236.7 94.0596 236.253 94.5654 235.938C95.0758 235.624 95.6569 235.467 96.3086 235.467C97.3158 235.467 98.1292 235.815 98.749 236.513C99.3734 237.21 99.6855 238.137 99.6855 239.295V239.384C99.6855 240.104 99.5465 240.751 99.2686 241.325C98.9951 241.895 98.6009 242.339 98.0859 242.658C97.5755 242.977 96.9876 243.137 96.3223 243.137C95.3197 243.137 94.5062 242.788 93.8818 242.091C93.262 241.394 92.9521 240.471 92.9521 239.322V239.233ZM94.2236 239.384C94.2236 240.204 94.4128 240.863 94.791 241.359C95.1738 241.856 95.6842 242.104 96.3223 242.104C96.9648 242.104 97.4753 241.854 97.8535 241.353C98.2318 240.847 98.4209 240.14 98.4209 239.233C98.4209 238.422 98.2272 237.766 97.8398 237.265C97.457 236.759 96.9466 236.506 96.3086 236.506C95.6842 236.506 95.1807 236.754 94.7979 237.251C94.415 237.748 94.2236 238.459 94.2236 239.384ZM104.847 236.738C104.655 236.706 104.448 236.69 104.225 236.69C103.395 236.69 102.832 237.044 102.536 237.75V243H101.271V235.604H102.502L102.522 236.458C102.937 235.797 103.525 235.467 104.286 235.467C104.532 235.467 104.719 235.499 104.847 235.562V236.738ZM105.571 239.24C105.571 238.105 105.84 237.194 106.378 236.506C106.916 235.813 107.62 235.467 108.49 235.467C109.356 235.467 110.042 235.763 110.548 236.355V232.5H111.812V243H110.65L110.589 242.207C110.083 242.827 109.379 243.137 108.477 243.137C107.62 243.137 106.92 242.786 106.378 242.084C105.84 241.382 105.571 240.466 105.571 239.336V239.24ZM106.836 239.384C106.836 240.222 107.009 240.879 107.355 241.353C107.702 241.826 108.18 242.063 108.791 242.063C109.593 242.063 110.179 241.703 110.548 240.983V237.586C110.17 236.889 109.589 236.54 108.805 236.54C108.185 236.54 107.702 236.779 107.355 237.258C107.009 237.736 106.836 238.445 106.836 239.384Z"
          fill="#A3A3A3"/>
    <path d="M44 230V248" stroke="#898989"/>
    <path d="M44 176V192" stroke="#959595"/>
    <path d="M53.1396 187.927H58.834V189H51.5879V188.016L57.043 180.127H51.6768V179.047H58.6152V180.011L53.1396 187.927ZM64.9043 189C64.8314 188.854 64.7721 188.594 64.7266 188.221C64.1387 188.831 63.4368 189.137 62.6211 189.137C61.8919 189.137 61.2926 188.932 60.8232 188.521C60.3584 188.107 60.126 187.583 60.126 186.949C60.126 186.179 60.4176 185.582 61.001 185.158C61.5889 184.73 62.4137 184.516 63.4756 184.516H64.7061V183.935C64.7061 183.493 64.5739 183.142 64.3096 182.882C64.0452 182.618 63.6556 182.485 63.1406 182.485C62.6895 182.485 62.3112 182.599 62.0059 182.827C61.7005 183.055 61.5479 183.331 61.5479 183.654H60.2764C60.2764 183.285 60.4062 182.93 60.666 182.588C60.9303 182.242 61.2858 181.968 61.7324 181.768C62.1836 181.567 62.6781 181.467 63.2158 181.467C64.068 181.467 64.7357 181.681 65.2188 182.109C65.7018 182.533 65.9525 183.119 65.9707 183.866V187.271C65.9707 187.95 66.0573 188.49 66.2305 188.891V189H64.9043ZM62.8057 188.036C63.2021 188.036 63.5781 187.934 63.9336 187.729C64.2891 187.523 64.5465 187.257 64.7061 186.929V185.411H63.7148C62.1654 185.411 61.3906 185.865 61.3906 186.771C61.3906 187.168 61.5228 187.478 61.7871 187.701C62.0514 187.924 62.391 188.036 62.8057 188.036ZM69.1494 181.604L69.1904 182.533C69.7555 181.822 70.4938 181.467 71.4053 181.467C72.9684 181.467 73.7568 182.349 73.7705 184.112V189H72.5059V184.105C72.5013 183.572 72.3783 183.178 72.1367 182.923C71.8997 182.668 71.5283 182.54 71.0225 182.54C70.6123 182.54 70.2523 182.649 69.9424 182.868C69.6325 183.087 69.391 183.374 69.2178 183.729V189H67.9531V181.604H69.1494ZM76.8672 187.968H81.1943V189H75.3223V188.07L79.4033 182.649H75.3838V181.604H80.9893V182.499L76.8672 187.968ZM83.9971 189H82.7324V181.604H83.9971V189ZM82.6299 179.642C82.6299 179.437 82.6914 179.263 82.8145 179.122C82.9421 178.981 83.1289 178.91 83.375 178.91C83.6211 178.91 83.8079 178.981 83.9355 179.122C84.0632 179.263 84.127 179.437 84.127 179.642C84.127 179.847 84.0632 180.018 83.9355 180.154C83.8079 180.291 83.6211 180.359 83.375 180.359C83.1289 180.359 82.9421 180.291 82.8145 180.154C82.6914 180.018 82.6299 179.847 82.6299 179.642ZM92.2891 185.384C92.2891 186.514 92.0293 187.423 91.5098 188.111C90.9902 188.795 90.293 189.137 89.418 189.137C88.4837 189.137 87.7614 188.806 87.251 188.146L87.1895 189H86.0273V178.5H87.292V182.417C87.8024 181.784 88.5065 181.467 89.4043 181.467C90.3021 181.467 91.0062 181.806 91.5166 182.485C92.0316 183.164 92.2891 184.094 92.2891 185.274V185.384ZM91.0244 185.24C91.0244 184.379 90.8581 183.714 90.5254 183.244C90.1927 182.775 89.7142 182.54 89.0898 182.54C88.2559 182.54 87.6566 182.927 87.292 183.702V186.901C87.6794 187.676 88.2832 188.063 89.1035 188.063C89.7096 188.063 90.1813 187.829 90.5186 187.359C90.8558 186.89 91.0244 186.184 91.0244 185.24ZM98.4551 189C98.3822 188.854 98.3229 188.594 98.2773 188.221C97.6895 188.831 96.9876 189.137 96.1719 189.137C95.4427 189.137 94.8434 188.932 94.374 188.521C93.9092 188.107 93.6768 187.583 93.6768 186.949C93.6768 186.179 93.9684 185.582 94.5518 185.158C95.1396 184.73 95.9645 184.516 97.0264 184.516H98.2568V183.935C98.2568 183.493 98.1247 183.142 97.8604 182.882C97.596 182.618 97.2064 182.485 96.6914 182.485C96.2402 182.485 95.862 182.599 95.5566 182.827C95.2513 183.055 95.0986 183.331 95.0986 183.654H93.8271C93.8271 183.285 93.957 182.93 94.2168 182.588C94.4811 182.242 94.8366 181.968 95.2832 181.768C95.7344 181.567 96.2288 181.467 96.7666 181.467C97.6188 181.467 98.2865 181.681 98.7695 182.109C99.2526 182.533 99.5033 183.119 99.5215 183.866V187.271C99.5215 187.95 99.6081 188.49 99.7812 188.891V189H98.4551ZM96.3564 188.036C96.7529 188.036 97.1289 187.934 97.4844 187.729C97.8398 187.523 98.0973 187.257 98.2568 186.929V185.411H97.2656C95.7161 185.411 94.9414 185.865 94.9414 186.771C94.9414 187.168 95.0736 187.478 95.3379 187.701C95.6022 187.924 95.9417 188.036 96.3564 188.036ZM105.079 182.738C104.888 182.706 104.68 182.69 104.457 182.69C103.628 182.69 103.065 183.044 102.769 183.75V189H101.504V181.604H102.734L102.755 182.458C103.17 181.797 103.757 181.467 104.519 181.467C104.765 181.467 104.951 181.499 105.079 181.562V182.738ZM111.327 189H110.015V179.047H111.327V189ZM113.733 189V179.047H116.543C117.409 179.047 118.174 179.238 118.84 179.621C119.505 180.004 120.018 180.549 120.378 181.255C120.743 181.961 120.927 182.772 120.932 183.688V184.324C120.932 185.263 120.749 186.086 120.385 186.792C120.025 187.498 119.507 188.041 118.833 188.419C118.163 188.797 117.382 188.991 116.488 189H113.733ZM115.046 180.127V187.927H116.427C117.438 187.927 118.225 187.612 118.785 186.983C119.35 186.354 119.633 185.459 119.633 184.297V183.716C119.633 182.586 119.366 181.708 118.833 181.084C118.304 180.455 117.552 180.136 116.577 180.127H115.046Z"
          fill="#A3A3A3"/>
    <rect x="28" y="270" width="275" height="32" rx="16" fill="#0500FF"/>
    <path d="M146.477 287.842C146.354 288.895 145.964 289.708 145.308 290.282C144.656 290.852 143.788 291.137 142.703 291.137C141.527 291.137 140.584 290.715 139.873 289.872C139.167 289.029 138.813 287.901 138.813 286.488V285.531C138.813 284.606 138.978 283.793 139.306 283.091C139.638 282.389 140.108 281.851 140.714 281.478C141.32 281.099 142.022 280.91 142.819 280.91C143.877 280.91 144.724 281.206 145.362 281.799C146 282.387 146.372 283.202 146.477 284.246H145.157C145.043 283.453 144.795 282.879 144.412 282.523C144.034 282.168 143.503 281.99 142.819 281.99C141.981 281.99 141.322 282.3 140.844 282.92C140.37 283.54 140.133 284.422 140.133 285.565V286.529C140.133 287.609 140.358 288.468 140.81 289.106C141.261 289.744 141.892 290.063 142.703 290.063C143.432 290.063 143.991 289.899 144.378 289.571C144.77 289.239 145.03 288.662 145.157 287.842H146.477ZM147.741 287.233C147.741 286.509 147.882 285.857 148.165 285.278C148.452 284.7 148.849 284.253 149.354 283.938C149.865 283.624 150.446 283.467 151.098 283.467C152.105 283.467 152.918 283.815 153.538 284.513C154.162 285.21 154.475 286.137 154.475 287.295V287.384C154.475 288.104 154.336 288.751 154.058 289.325C153.784 289.895 153.39 290.339 152.875 290.658C152.365 290.977 151.777 291.137 151.111 291.137C150.109 291.137 149.295 290.788 148.671 290.091C148.051 289.394 147.741 288.471 147.741 287.322V287.233ZM149.013 287.384C149.013 288.204 149.202 288.863 149.58 289.359C149.963 289.856 150.473 290.104 151.111 290.104C151.754 290.104 152.264 289.854 152.643 289.353C153.021 288.847 153.21 288.14 153.21 287.233C153.21 286.422 153.016 285.766 152.629 285.265C152.246 284.759 151.736 284.506 151.098 284.506C150.473 284.506 149.97 284.754 149.587 285.251C149.204 285.748 149.013 286.459 149.013 287.384ZM157.257 283.604L157.298 284.533C157.863 283.822 158.601 283.467 159.513 283.467C161.076 283.467 161.864 284.349 161.878 286.112V291H160.613V286.105C160.609 285.572 160.486 285.178 160.244 284.923C160.007 284.668 159.636 284.54 159.13 284.54C158.72 284.54 158.36 284.649 158.05 284.868C157.74 285.087 157.498 285.374 157.325 285.729V291H156.061V283.604H157.257ZM165.501 281.812V283.604H166.882V284.581H165.501V289.168C165.501 289.464 165.562 289.688 165.686 289.838C165.809 289.984 166.018 290.057 166.314 290.057C166.46 290.057 166.661 290.029 166.916 289.975V291C166.583 291.091 166.26 291.137 165.945 291.137C165.38 291.137 164.954 290.966 164.667 290.624C164.38 290.282 164.236 289.797 164.236 289.168V284.581H162.89V283.604H164.236V281.812H165.501ZM169.739 291H168.475V283.604H169.739V291ZM168.372 281.642C168.372 281.437 168.434 281.263 168.557 281.122C168.684 280.981 168.871 280.91 169.117 280.91C169.363 280.91 169.55 280.981 169.678 281.122C169.805 281.263 169.869 281.437 169.869 281.642C169.869 281.847 169.805 282.018 169.678 282.154C169.55 282.291 169.363 282.359 169.117 282.359C168.871 282.359 168.684 282.291 168.557 282.154C168.434 282.018 168.372 281.847 168.372 281.642ZM172.966 283.604L173.007 284.533C173.572 283.822 174.31 283.467 175.222 283.467C176.785 283.467 177.573 284.349 177.587 286.112V291H176.322V286.105C176.318 285.572 176.195 285.178 175.953 284.923C175.716 284.668 175.345 284.54 174.839 284.54C174.429 284.54 174.069 284.649 173.759 284.868C173.449 285.087 173.207 285.374 173.034 285.729V291H171.77V283.604H172.966ZM184.061 290.269C183.568 290.847 182.846 291.137 181.894 291.137C181.105 291.137 180.504 290.909 180.089 290.453C179.679 289.993 179.471 289.314 179.467 288.416V283.604H180.731V288.382C180.731 289.503 181.187 290.063 182.099 290.063C183.065 290.063 183.707 289.703 184.026 288.983V283.604H185.291V291H184.088L184.061 290.269ZM190.288 291.137C189.285 291.137 188.47 290.809 187.841 290.152C187.212 289.492 186.897 288.61 186.897 287.507V287.274C186.897 286.541 187.036 285.887 187.314 285.312C187.597 284.734 187.989 284.283 188.49 283.959C188.996 283.631 189.543 283.467 190.131 283.467C191.092 283.467 191.84 283.784 192.373 284.417C192.906 285.05 193.173 285.957 193.173 287.138V287.664H188.162C188.18 288.393 188.392 288.983 188.798 289.435C189.208 289.881 189.728 290.104 190.356 290.104C190.803 290.104 191.181 290.013 191.491 289.831C191.801 289.649 192.072 289.407 192.305 289.106L193.077 289.708C192.457 290.66 191.528 291.137 190.288 291.137ZM190.131 284.506C189.62 284.506 189.192 284.693 188.846 285.066C188.499 285.436 188.285 285.955 188.203 286.625H191.908V286.529C191.872 285.887 191.699 285.39 191.389 285.039C191.079 284.684 190.66 284.506 190.131 284.506Z"
          fill="white"/>
    <path d="M223 11C237.9 17.0405 253.496 24.3038 263.694 37.2222C267.634 42.2122 271.43 48.1837 271.5 54.7222C271.525 57.0759 271.796 59.746 271.111 62.0278C270.275 64.8136 268.156 66.7909 266.806 69.2778C265.955 70.8442 266.225 72.5493 265.5 74"
          stroke="black" stroke-linecap="round" stroke-linejoin="round"/>
    <path d="M263.5 71.5C263.5 73.6012 263.495 78.2558 266.222 74.75C266.786 74.0248 267.774 71.9058 268 71"
          stroke="black" stroke-linecap="round" stroke-linejoin="round"/>
    <path d="M217.5 1H222.5V18.5H217.5" stroke="black"/>
    <path d="M161.949 10.2358V14H161.168V4.75781H164.316C165.277 4.75781 166.035 5.00326 166.589 5.49414C167.147 5.98503 167.427 6.65999 167.427 7.51904C167.427 8.38656 167.158 9.05729 166.621 9.53125C166.087 10.001 165.313 10.2358 164.297 10.2358H161.949ZM161.949 9.57568H164.316C165.074 9.57568 165.652 9.39583 166.049 9.03613C166.447 8.67643 166.646 8.17497 166.646 7.53174C166.646 6.89274 166.447 6.38493 166.049 6.0083C165.656 5.62744 165.095 5.43278 164.367 5.42432H161.949V9.57568ZM172.175 7.7793C172.014 7.74967 171.843 7.73486 171.661 7.73486C171.187 7.73486 170.785 7.86816 170.455 8.13477C170.129 8.39714 169.896 8.78011 169.756 9.28369V14H169.001V7.13184H169.744L169.756 8.22363C170.158 7.41113 170.804 7.00488 171.692 7.00488C171.904 7.00488 172.071 7.03239 172.194 7.0874L172.175 7.7793ZM175.914 14.127C175.33 14.127 174.801 13.9831 174.327 13.6953C173.857 13.4076 173.491 13.0076 173.229 12.4956C172.966 11.9793 172.835 11.4017 172.835 10.7627V10.4897C172.835 9.82959 172.962 9.23503 173.216 8.70605C173.474 8.17708 173.832 7.76237 174.289 7.46191C174.746 7.15723 175.241 7.00488 175.774 7.00488C176.608 7.00488 177.268 7.29053 177.754 7.86182C178.245 8.42887 178.491 9.2054 178.491 10.1914V10.6167H173.59V10.7627C173.59 11.5413 173.812 12.1909 174.257 12.7114C174.705 13.2277 175.268 13.4858 175.945 13.4858C176.352 13.4858 176.709 13.4118 177.018 13.2637C177.331 13.1156 177.615 12.8786 177.869 12.5527L178.345 12.9146C177.786 13.7228 176.976 14.127 175.914 14.127ZM175.774 7.65234C175.203 7.65234 174.72 7.86182 174.327 8.28076C173.937 8.69971 173.7 9.26253 173.616 9.96924H177.735V9.88672C177.714 9.22656 177.526 8.68913 177.17 8.27441C176.815 7.8597 176.349 7.65234 175.774 7.65234ZM184.083 12.2544C184.083 11.8778 183.931 11.5752 183.626 11.3467C183.326 11.1182 182.871 10.9404 182.261 10.8135C181.652 10.6823 181.178 10.5342 180.839 10.3691C180.505 10.1999 180.255 9.99463 180.09 9.75342C179.93 9.51221 179.849 9.22021 179.849 8.87744C179.849 8.33577 180.076 7.88932 180.528 7.53809C180.981 7.18262 181.561 7.00488 182.268 7.00488C183.034 7.00488 183.647 7.19531 184.108 7.57617C184.574 7.9528 184.807 8.4458 184.807 9.05518H184.045C184.045 8.65316 183.876 8.31885 183.537 8.05225C183.203 7.78564 182.78 7.65234 182.268 7.65234C181.768 7.65234 181.366 7.76449 181.062 7.98877C180.761 8.20882 180.611 8.49658 180.611 8.85205C180.611 9.19482 180.736 9.46143 180.985 9.65186C181.239 9.83805 181.698 10.0094 182.363 10.166C183.031 10.3226 183.531 10.4897 183.861 10.6675C184.195 10.8452 184.443 11.0589 184.604 11.3086C184.764 11.5583 184.845 11.8608 184.845 12.2163C184.845 12.7961 184.61 13.2594 184.14 13.6064C183.675 13.9535 183.065 14.127 182.312 14.127C181.512 14.127 180.863 13.9344 180.363 13.5493C179.868 13.16 179.621 12.6691 179.621 12.0767H180.382C180.412 12.521 180.598 12.868 180.941 13.1177C181.288 13.3631 181.745 13.4858 182.312 13.4858C182.841 13.4858 183.268 13.3695 183.594 13.1367C183.92 12.904 184.083 12.6099 184.083 12.2544ZM190.672 12.2544C190.672 11.8778 190.52 11.5752 190.215 11.3467C189.914 11.1182 189.459 10.9404 188.85 10.8135C188.241 10.6823 187.767 10.5342 187.428 10.3691C187.094 10.1999 186.844 9.99463 186.679 9.75342C186.518 9.51221 186.438 9.22021 186.438 8.87744C186.438 8.33577 186.664 7.88932 187.117 7.53809C187.57 7.18262 188.15 7.00488 188.856 7.00488C189.622 7.00488 190.236 7.19531 190.697 7.57617C191.163 7.9528 191.396 8.4458 191.396 9.05518H190.634C190.634 8.65316 190.465 8.31885 190.126 8.05225C189.792 7.78564 189.368 7.65234 188.856 7.65234C188.357 7.65234 187.955 7.76449 187.65 7.98877C187.35 8.20882 187.2 8.49658 187.2 8.85205C187.2 9.19482 187.325 9.46143 187.574 9.65186C187.828 9.83805 188.287 10.0094 188.952 10.166C189.62 10.3226 190.12 10.4897 190.45 10.6675C190.784 10.8452 191.032 11.0589 191.192 11.3086C191.353 11.5583 191.434 11.8608 191.434 12.2163C191.434 12.7961 191.199 13.2594 190.729 13.6064C190.264 13.9535 189.654 14.127 188.901 14.127C188.101 14.127 187.451 13.9344 186.952 13.5493C186.457 13.16 186.209 12.6691 186.209 12.0767H186.971C187.001 12.521 187.187 12.868 187.53 13.1177C187.877 13.3631 188.334 13.4858 188.901 13.4858C189.43 13.4858 189.857 13.3695 190.183 13.1367C190.509 12.904 190.672 12.6099 190.672 12.2544ZM197.064 8.29346C197.314 7.88298 197.633 7.56559 198.022 7.34131C198.412 7.11702 198.837 7.00488 199.298 7.00488C200.035 7.00488 200.583 7.21224 200.942 7.62695C201.302 8.04167 201.484 8.66374 201.488 9.49316V14H200.733V9.48682C200.729 8.87321 200.597 8.41618 200.339 8.11572C200.085 7.81527 199.677 7.66504 199.114 7.66504C198.645 7.66504 198.228 7.81315 197.864 8.10938C197.504 8.40137 197.237 8.79704 197.064 9.29639V14H196.309V4.25H197.064V8.29346ZM206.103 14.127C205.519 14.127 204.99 13.9831 204.516 13.6953C204.046 13.4076 203.68 13.0076 203.418 12.4956C203.156 11.9793 203.024 11.4017 203.024 10.7627V10.4897C203.024 9.82959 203.151 9.23503 203.405 8.70605C203.663 8.17708 204.021 7.76237 204.478 7.46191C204.935 7.15723 205.43 7.00488 205.963 7.00488C206.797 7.00488 207.457 7.29053 207.944 7.86182C208.435 8.42887 208.68 9.2054 208.68 10.1914V10.6167H203.78V10.7627C203.78 11.5413 204.002 12.1909 204.446 12.7114C204.895 13.2277 205.458 13.4858 206.135 13.4858C206.541 13.4858 206.899 13.4118 207.208 13.2637C207.521 13.1156 207.804 12.8786 208.058 12.5527L208.534 12.9146C207.976 13.7228 207.165 14.127 206.103 14.127ZM205.963 7.65234C205.392 7.65234 204.91 7.86182 204.516 8.28076C204.127 8.69971 203.89 9.26253 203.805 9.96924H207.925V9.88672C207.904 9.22656 207.715 8.68913 207.36 8.27441C207.004 7.8597 206.539 7.65234 205.963 7.65234ZM213.333 7.7793C213.172 7.74967 213.001 7.73486 212.819 7.73486C212.345 7.73486 211.943 7.86816 211.613 8.13477C211.287 8.39714 211.054 8.78011 210.915 9.28369V14H210.159V7.13184H210.902L210.915 8.22363C211.317 7.41113 211.962 7.00488 212.851 7.00488C213.062 7.00488 213.229 7.03239 213.352 7.0874L213.333 7.7793ZM217.072 14.127C216.488 14.127 215.959 13.9831 215.485 13.6953C215.015 13.4076 214.649 13.0076 214.387 12.4956C214.124 11.9793 213.993 11.4017 213.993 10.7627V10.4897C213.993 9.82959 214.12 9.23503 214.374 8.70605C214.632 8.17708 214.99 7.76237 215.447 7.46191C215.904 7.15723 216.399 7.00488 216.932 7.00488C217.766 7.00488 218.426 7.29053 218.913 7.86182C219.403 8.42887 219.649 9.2054 219.649 10.1914V10.6167H214.749V10.7627C214.749 11.5413 214.971 12.1909 215.415 12.7114C215.864 13.2277 216.426 13.4858 217.104 13.4858C217.51 13.4858 217.867 13.4118 218.176 13.2637C218.489 13.1156 218.773 12.8786 219.027 12.5527L219.503 12.9146C218.944 13.7228 218.134 14.127 217.072 14.127ZM216.932 7.65234C216.361 7.65234 215.878 7.86182 215.485 8.28076C215.096 8.69971 214.859 9.26253 214.774 9.96924H218.894V9.88672C218.872 9.22656 218.684 8.68913 218.329 8.27441C217.973 7.8597 217.508 7.65234 216.932 7.65234Z"
          fill="black"/>
    <defs>
        <filter id="filter0_d" x="233.5" y="49" width="112" height="60" filterUnits="userSpaceOnUse"
                color-interpolation-filters="sRGB">
            <feFlood flood-opacity="0" result="BackgroundImageFix"/>
            <feColorMatrix in="SourceAlpha" type="matrix" values="0 0 0 0 0 0 0 0 0 0 0 0 0 0 0 0 0 0 127 0"/>
            <feOffset/>
            <feGaussianBlur stdDeviation="4.5"/>
            <feColorMatrix type="matrix" values="0 0 0 0 1 0 0 0 0 0.824 0 0 0 0 0.2 0 0 0 0.43 0"/>
            <feBlend mode="normal" in2="BackgroundImageFix" result="effect1_dropShadow"/>
            <feBlend mode="normal" in="SourceGraphic" in2="effect1_dropShadow" result="shape"/>
        </filter>
        <filter id="filter1_d" x="0" y="136" width="331" height="186" filterUnits="userSpaceOnUse"
                color-interpolation-filters="sRGB">
            <feFlood flood-opacity="0" result="BackgroundImageFix"/>
            <feColorMatrix in="SourceAlpha" type="matrix" values="0 0 0 0 0 0 0 0 0 0 0 0 0 0 0 0 0 0 127 0"/>
            <feOffset dy="4"/>
            <feGaussianBlur stdDeviation="2"/>
            <feColorMatrix type="matrix" values="0 0 0 0 0 0 0 0 0 0 0 0 0 0 0 0 0 0 0.25 0"/>
            <feBlend mode="normal" in2="BackgroundImageFix" result="effect1_dropShadow"/>
            <feBlend mode="normal" in="SourceGraphic" in2="effect1_dropShadow" result="shape"/>
        </filter>
    </defs>
</svg>

