<svg width="287" height="377" viewBox="0 0 287 377" fill="none" xmlns="http://www.w3.org/2000/svg">
    <path d="M34.2993 69.4388C7.20953 93.6358 -10.6665 166.842 54.8788 241.751C75.3086 306.445 44.8468 331.471 71.068 359.37C103.844 394.243 169.343 339.291 216.444 309.775C263.546 280.259 251.712 219.739 253.858 183.688C256.004 147.637 294.74 151.27 232.813 53.0359C170.885 -45.1977 199.671 34.4209 34.2993 69.4388Z"
          fill="#F0F6FF"/>
    <path d="M219.242 161.446L214.307 146.413C165.078 247.199 152.771 286.583 152.771 297.933V314.106L166.391 297.933C189.328 241.43 207.2 194.504 219.242 161.446Z"
          fill="#0500FF"/>
    <path d="M103.399 349.007L266.837 306.445L214.307 146.413M84.6723 306.445L28.4906 129.388L193.631 83.4213L214.307 146.413M214.307 146.413C165.078 247.199 152.771 286.583 152.771 297.933V314.106L166.391 297.933C210.068 190.337 235.38 117.471 237.044 108.958"
          stroke="#0500FF" stroke-width="2"/>
    <path d="M119.999 319.64C123.403 318.622 127.246 316.873 130.852 316.873" stroke="#393939" stroke-linecap="round"
          stroke-linejoin="round"/>
    <path d="M124.893 318.15C126.366 319.744 127.909 321.262 129.421 322.82C131.102 324.552 133.406 326.375 132.814 329.062C132.506 330.459 131.718 332.043 130.379 332.739C128.294 333.822 126.14 331.903 125.082 330.28C121.552 324.866 126.971 319.201 132.672 320.916C133.711 321.229 134.154 322.027 135.025 322.489C135.93 322.968 137.894 321.733 138.915 321.744C141.101 321.767 142.448 322.743 144.223 323.742C144.632 323.972 144.471 321.784 144.471 321.496C144.471 319.853 145.456 320.278 146.871 320.278C147.034 320.278 144.865 320.601 145.795 320.136C146.602 319.733 147.689 319.387 148.42 318.906C149.158 318.421 149.327 316.619 149.792 315.844C150.264 315.057 150.955 315.17 151.778 315.17C152.602 315.17 153.294 314.815 154.048 314.532"
          stroke="#393939" stroke-linecap="round" stroke-linejoin="round"/>
    <path d="M54.8789 152.371L119.573 131.09" stroke="#393939" stroke-width="3"/>
    <path d="M59.9863 162.586L154.474 131.09" stroke="#393939" stroke-width="3"/>
    <path d="M65.9453 173.652L110.21 158.33" stroke="#393939" stroke-width="3"/>
    <path d="M119.573 154.925L149.367 143.859" stroke="#393939" stroke-width="3"/>
    <path d="M71.9034 188.123L173.201 152.371" stroke="#393939" stroke-width="3"/>
    <path d="M119.573 181.313L76.16 195.784L83.8212 217.916L127.234 203.445L119.573 181.313Z" fill="#FFC700"
          stroke="#393939" stroke-width="2"/>
    <path d="M90.6304 229.834L150.217 209.404" stroke="#393939" stroke-width="3"/>
    <path d="M92.7584 236.644L140.002 220.47" stroke="#393939" stroke-width="3"/>
    <path d="M145.961 218.342L177.457 206.851" stroke="#393939" stroke-width="3"/>
    <path d="M97.8667 254.094L94.4617 243.879L106.379 240.474L110.635 249.412L97.8667 254.094Z" fill="#FFC702"
          stroke="#393939"/>
    <path d="M98.4555 243.679L103.24 246.769C105.081 247.957 107.535 247.444 108.745 245.617L116.379 234.09"
          stroke="#393939" stroke-width="3"/>
</svg>
