<svg width="223" height="201" viewBox="0 0 223 201" fill="none" xmlns="http://www.w3.org/2000/svg">
<path d="M38.6821 141.209C21.1918 128.427 -10.358 87.527 3.36518 26.1765C10.7649 21.4675 37.8748 14.875 87.1167 26.1765C129.497 38.2852 161.787 8.01349 182.977 0.950112C204.167 -6.11327 216.276 26.1765 222.33 98.8284C217.285 130.109 182.977 218.906 146.651 196.707C132.524 160.381 110.527 155.739 38.6821 141.209Z" fill="#FFF5D2"/>
<g filter="url(#filter0_d)">
<path d="M36.326 20.1811H167.503V101.915H64.5795" stroke="#FFC702" stroke-width="2"/>
<path d="M124.618 74.67H79.2107C73.9165 74.67 69.6248 78.9618 69.6248 84.256C69.6248 89.5502 73.9165 93.842 79.2107 93.842H124.618C129.912 93.842 134.204 89.5502 134.204 84.256C134.204 78.9618 129.912 74.67 124.618 74.67Z" fill="#FFC700"/>
<path d="M86.2464 84.8943C85.2815 84.6169 84.5784 84.2771 84.137 83.8748C83.6995 83.4685 83.4807 82.9685 83.4807 82.3748C83.4807 81.7029 83.7483 81.1482 84.2835 80.7107C84.8225 80.2693 85.5218 80.0486 86.3811 80.0486C86.9671 80.0486 87.4886 80.1619 87.9456 80.3884C88.4065 80.615 88.762 80.9275 89.012 81.3259C89.2659 81.7244 89.3929 82.1599 89.3929 82.6326H88.262C88.262 82.1169 88.0979 81.7126 87.7698 81.4197C87.4417 81.1228 86.9788 80.9744 86.3811 80.9744C85.8264 80.9744 85.3929 81.0974 85.0804 81.3435C84.7718 81.5857 84.6175 81.9236 84.6175 82.3572C84.6175 82.7048 84.7639 82.9998 85.0569 83.2419C85.3538 83.4802 85.8557 83.699 86.5628 83.8982C87.2737 84.0974 87.8284 84.3181 88.2268 84.5603C88.6292 84.7986 88.9261 85.0779 89.1175 85.3982C89.3128 85.7185 89.4104 86.0955 89.4104 86.5291C89.4104 87.2205 89.1409 87.7751 88.6018 88.1931C88.0628 88.6072 87.3421 88.8142 86.4397 88.8142C85.8538 88.8142 85.3069 88.7029 84.7991 88.4802C84.2913 88.2537 83.8987 87.9451 83.6214 87.5544C83.3479 87.1638 83.2112 86.7205 83.2112 86.2244H84.3421C84.3421 86.74 84.5315 87.1482 84.9104 87.449C85.2932 87.7458 85.803 87.8943 86.4397 87.8943C87.0335 87.8943 87.4886 87.7732 87.805 87.531C88.1214 87.2888 88.2796 86.9587 88.2796 86.5408C88.2796 86.1228 88.1331 85.8005 87.8401 85.574C87.5471 85.3435 87.0159 85.1169 86.2464 84.8943ZM94.6018 88.0701C94.18 88.5662 93.5608 88.8142 92.7444 88.8142C92.0686 88.8142 91.553 88.6189 91.1975 88.2283C90.846 87.8337 90.6682 87.2517 90.6643 86.4822V82.3572H91.7483V86.4529C91.7483 87.4138 92.1389 87.8943 92.9202 87.8943C93.7483 87.8943 94.2991 87.5857 94.5725 86.9685V82.3572H95.6565V88.697H94.6253L94.6018 88.0701ZM102.676 85.5974C102.676 86.5662 102.453 87.3455 102.008 87.9353C101.563 88.5212 100.965 88.8142 100.215 88.8142C99.4143 88.8142 98.7952 88.531 98.3577 87.9646L98.305 88.697H97.3089V79.697H98.3929V83.0544C98.8304 82.5115 99.4339 82.24 100.203 82.24C100.973 82.24 101.576 82.531 102.014 83.113C102.455 83.6951 102.676 84.4919 102.676 85.5037V85.5974ZM101.592 85.4744C101.592 84.7361 101.449 84.1658 101.164 83.7634C100.879 83.3611 100.469 83.1599 99.9339 83.1599C99.219 83.1599 98.7054 83.4919 98.3929 84.156V86.8982C98.7249 87.5623 99.2425 87.8943 99.9456 87.8943C100.465 87.8943 100.869 87.6931 101.158 87.2908C101.448 86.8884 101.592 86.283 101.592 85.4744ZM105.067 82.3572L105.096 83.0603C105.561 82.5134 106.188 82.24 106.977 82.24C107.864 82.24 108.467 82.5798 108.787 83.2595C108.998 82.9548 109.272 82.7087 109.608 82.5212C109.948 82.3337 110.348 82.24 110.809 82.24C112.199 82.24 112.907 82.9763 112.93 84.449V88.697H111.846V84.5134C111.846 84.0603 111.742 83.7224 111.535 83.4998C111.328 83.2732 110.981 83.1599 110.492 83.1599C110.09 83.1599 109.756 83.281 109.491 83.5232C109.225 83.7615 109.071 84.0837 109.028 84.49V88.697H107.938V84.5427C107.938 83.6208 107.487 83.1599 106.584 83.1599C105.873 83.1599 105.387 83.4626 105.125 84.0681V88.697H104.041V82.3572H105.067ZM115.748 88.697H114.664V82.3572H115.748V88.697ZM114.576 80.6755C114.576 80.4998 114.629 80.3513 114.735 80.2302C114.844 80.1091 115.004 80.0486 115.215 80.0486C115.426 80.0486 115.586 80.1091 115.696 80.2302C115.805 80.3513 115.86 80.4998 115.86 80.6755C115.86 80.8513 115.805 80.9978 115.696 81.115C115.586 81.2322 115.426 81.2908 115.215 81.2908C115.004 81.2908 114.844 81.2322 114.735 81.115C114.629 80.9978 114.576 80.8513 114.576 80.6755ZM118.959 80.822V82.3572H120.143V83.1951H118.959V87.1267C118.959 87.3806 119.012 87.572 119.117 87.7009C119.223 87.8259 119.403 87.8884 119.657 87.8884C119.782 87.8884 119.953 87.865 120.172 87.8181V88.697C119.887 88.7751 119.61 88.8142 119.34 88.8142C118.856 88.8142 118.491 88.6677 118.244 88.3748C117.998 88.0818 117.875 87.6658 117.875 87.1267V83.1951H116.721V82.3572H117.875V80.822H118.959Z" fill="black"/>
<g filter="url(#filter1_d)">
<rect x="49.4437" y="39.3531" width="102.923" height="17.1539" rx="3" fill="#FFFCF0"/>
<rect x="49.9437" y="39.8531" width="101.923" height="16.1539" rx="2.5" stroke="#FFD233"/>
</g>
<path d="M57.3199 28.3103H54.3961V36.2264H53.6754V28.3103H50.7574V27.6951H57.3199V28.3103ZM57.566 32.9627C57.566 32.3533 57.6832 31.8045 57.9176 31.3162C58.1559 30.8279 58.4898 30.449 58.9195 30.1795C59.3531 29.9061 59.8434 29.7693 60.3902 29.7693C61.234 29.7693 61.9176 30.0662 62.441 30.66C62.9644 31.2498 63.2262 32.033 63.2262 33.0096V33.1561C63.2262 33.7693 63.107 34.3221 62.8687 34.8143C62.6344 35.3025 62.3023 35.6795 61.8727 35.9451C61.443 36.2107 60.9527 36.3436 60.4019 36.3436C59.5621 36.3436 58.8785 36.0486 58.3512 35.4588C57.8277 34.865 57.566 34.0799 57.566 33.1033V32.9627ZM58.2691 33.1561C58.2691 33.9139 58.4644 34.5369 58.8551 35.0252C59.2496 35.5096 59.7652 35.7518 60.4019 35.7518C61.0348 35.7518 61.5465 35.5096 61.9371 35.0252C62.3316 34.5369 62.5289 33.8943 62.5289 33.0975V32.9627C62.5289 32.4783 62.4391 32.035 62.2594 31.6326C62.0797 31.2303 61.8277 30.9197 61.5035 30.701C61.1793 30.4783 60.8082 30.367 60.3902 30.367C59.7652 30.367 59.2555 30.6131 58.8609 31.1053C58.4664 31.5936 58.2691 32.2342 58.2691 33.0271V33.1561ZM65.7691 28.2635V29.8865H67.0816V30.4607H65.7691V34.6853C65.7691 35.0369 65.8316 35.2986 65.9566 35.4705C66.0855 35.6424 66.2984 35.7283 66.5953 35.7283C66.7125 35.7283 66.9019 35.7088 67.1637 35.6697L67.193 36.2439C67.0094 36.3103 66.7594 36.3436 66.443 36.3436C65.9625 36.3436 65.6129 36.2049 65.3941 35.9275C65.1754 35.6463 65.066 35.2342 65.066 34.6912V30.4607H63.9V29.8865H65.066V28.2635H65.7691ZM72.5367 36.2264C72.4664 36.0271 72.4215 35.7322 72.4019 35.3416C72.1559 35.6619 71.8414 35.91 71.4586 36.0857C71.0797 36.2576 70.6773 36.3436 70.2516 36.3436C69.6422 36.3436 69.148 36.1736 68.7691 35.8338C68.3941 35.4939 68.2066 35.0643 68.2066 34.5447C68.2066 33.9275 68.4625 33.4393 68.9742 33.0799C69.4898 32.7205 70.2066 32.5408 71.1246 32.5408H72.3961V31.8201C72.3961 31.367 72.2555 31.0115 71.9742 30.7537C71.6969 30.492 71.2906 30.3611 70.7555 30.3611C70.2672 30.3611 69.8629 30.4861 69.5426 30.7361C69.2223 30.9861 69.0621 31.2869 69.0621 31.6385L68.359 31.6326C68.359 31.1287 68.5934 30.6932 69.0621 30.326C69.5309 29.9549 70.107 29.7693 70.7906 29.7693C71.4977 29.7693 72.0543 29.9471 72.4605 30.3025C72.8707 30.6541 73.0816 31.1463 73.0934 31.7791V34.7791C73.0934 35.3924 73.1578 35.8514 73.2867 36.1561V36.2264H72.5367ZM70.3336 35.7225C70.8023 35.7225 71.2203 35.6092 71.5875 35.3826C71.9586 35.1561 72.2281 34.8533 72.3961 34.4744V33.0799H71.1422C70.443 33.0877 69.8961 33.2166 69.5016 33.4666C69.107 33.7127 68.9098 34.0525 68.9098 34.4861C68.9098 34.8416 69.0406 35.1365 69.3023 35.3709C69.568 35.6053 69.9117 35.7225 70.3336 35.7225ZM75.7535 36.2264H75.0504V27.2264H75.7535V36.2264Z" fill="#6C6C6C"/>
<path d="M62.638 46.9769H63.3846C63.8537 46.9698 64.2225 46.8462 64.491 46.6063C64.7596 46.3664 64.8939 46.0424 64.8939 45.6342C64.8939 44.7175 64.4373 44.2592 63.5242 44.2592C63.0945 44.2592 62.7508 44.3827 62.493 44.6298C62.2387 44.8733 62.1116 45.1973 62.1116 45.6019H61.118C61.118 44.9825 61.3436 44.4686 61.7947 44.0604C62.2495 43.6486 62.826 43.4427 63.5242 43.4427C64.2619 43.4427 64.8401 43.6379 65.2591 44.0282C65.678 44.4185 65.8875 44.961 65.8875 45.6556C65.8875 45.9958 65.7765 46.3252 65.5545 46.6439C65.3361 46.9626 65.0371 47.2007 64.6575 47.3583C65.0872 47.4943 65.4184 47.7199 65.6512 48.035C65.8875 48.3501 66.0057 48.7351 66.0057 49.1898C66.0057 49.8916 65.7765 50.4484 65.3182 50.8602C64.8598 51.272 64.2637 51.4779 63.5296 51.4779C62.7956 51.4779 62.1976 51.2792 61.7357 50.8817C61.2773 50.4843 61.0482 49.9597 61.0482 49.308H62.0472C62.0472 49.7198 62.1815 50.0492 62.45 50.2963C62.7186 50.5433 63.0784 50.6669 63.5296 50.6669C64.0094 50.6669 64.3764 50.5415 64.6307 50.2909C64.8849 50.0402 65.012 49.6804 65.012 49.2113C65.012 48.7566 64.8724 48.4074 64.5931 48.1639C64.3138 47.9205 63.9109 47.7951 63.3846 47.788H62.638V46.9769ZM67.4398 52.9281L66.8758 52.5414C67.2124 52.0723 67.3878 51.5889 67.4022 51.0912V50.1942H68.3743V50.973C68.3743 51.3347 68.2848 51.6963 68.1058 52.058C67.9303 52.4196 67.7083 52.7097 67.4398 52.9281ZM74.4329 48.035C74.4329 49.1988 74.2342 50.0635 73.8367 50.6293C73.4393 51.195 72.818 51.4779 71.973 51.4779C71.1387 51.4779 70.521 51.2022 70.1199 50.6508C69.7189 50.0957 69.5112 49.2686 69.4969 48.1693V46.8427C69.4969 45.6932 69.6956 44.8392 70.0931 44.2806C70.4905 43.722 71.1136 43.4427 71.9622 43.4427C72.8037 43.4427 73.4232 43.7131 73.8206 44.2538C74.2181 44.7909 74.4222 45.6216 74.4329 46.746V48.035ZM73.4393 46.6761C73.4393 45.8347 73.3211 45.2224 73.0848 44.8392C72.8484 44.4525 72.4743 44.2592 71.9622 44.2592C71.4538 44.2592 71.0832 44.4507 70.8504 44.8339C70.6177 45.217 70.4977 45.806 70.4905 46.601V48.1908C70.4905 49.0358 70.6123 49.6607 70.8558 50.0653C71.1028 50.4663 71.4752 50.6669 71.973 50.6669C72.4635 50.6669 72.827 50.4771 73.0633 50.0975C73.3032 49.718 73.4285 49.12 73.4393 48.3036V46.6761ZM80.6097 48.035C80.6097 49.1988 80.4109 50.0635 80.0135 50.6293C79.616 51.195 78.9948 51.4779 78.1497 51.4779C77.3154 51.4779 76.6977 51.2022 76.2967 50.6508C75.8957 50.0957 75.688 49.2686 75.6736 48.1693V46.8427C75.6736 45.6932 75.8724 44.8392 76.2698 44.2806C76.6673 43.722 77.2903 43.4427 78.139 43.4427C78.9804 43.4427 79.5999 43.7131 79.9974 44.2538C80.3948 44.7909 80.5989 45.6216 80.6097 46.746V48.035ZM79.616 46.6761C79.616 45.8347 79.4979 45.2224 79.2615 44.8392C79.0252 44.4525 78.651 44.2592 78.139 44.2592C77.6305 44.2592 77.2599 44.4507 77.0272 44.8339C76.7944 45.217 76.6745 45.806 76.6673 46.601V48.1908C76.6673 49.0358 76.789 49.6607 77.0325 50.0653C77.2796 50.4663 77.652 50.6669 78.1497 50.6669C78.6403 50.6669 79.0037 50.4771 79.2401 50.0975C79.48 49.718 79.6053 49.12 79.616 48.3036V46.6761ZM86.7864 48.035C86.7864 49.1988 86.5877 50.0635 86.1902 50.6293C85.7928 51.195 85.1715 51.4779 84.3265 51.4779C83.4922 51.4779 82.8745 51.2022 82.4734 50.6508C82.0724 50.0957 81.8647 49.2686 81.8504 48.1693V46.8427C81.8504 45.6932 82.0491 44.8392 82.4466 44.2806C82.8441 43.722 83.4671 43.4427 84.3157 43.4427C85.1572 43.4427 85.7767 43.7131 86.1741 44.2538C86.5716 44.7909 86.7757 45.6216 86.7864 46.746V48.035ZM85.7928 46.6761C85.7928 45.8347 85.6746 45.2224 85.4383 44.8392C85.202 44.4525 84.8278 44.2592 84.3157 44.2592C83.8073 44.2592 83.4367 44.4507 83.2039 44.8339C82.9712 45.217 82.8512 45.806 82.8441 46.601V48.1908C82.8441 49.0358 82.9658 49.6607 83.2093 50.0653C83.4564 50.4663 83.8288 50.6669 84.3265 50.6669C84.817 50.6669 85.1805 50.4771 85.4168 50.0975C85.6567 49.718 85.782 49.12 85.7928 48.3036V46.6761ZM96.2342 44.3988H93.7205V51.3705H92.6946V44.3988H90.1863V43.5502H96.2342V44.3988ZM98.1678 50.5272H102.642V51.3705H96.9485V50.597L101.235 44.3988H97.0184V43.5502H102.47V44.3075L98.1678 50.5272ZM106.284 47.8846C105.399 47.6304 104.755 47.3189 104.35 46.9501C103.949 46.5777 103.748 46.1193 103.748 45.5751C103.748 44.9592 103.994 44.4507 104.484 44.0497C104.978 43.6451 105.619 43.4427 106.407 43.4427C106.944 43.4427 107.422 43.5466 107.841 43.7543C108.264 43.962 108.589 44.2484 108.819 44.6136C109.051 44.9789 109.168 45.3781 109.168 45.8114H108.131C108.131 45.3387 107.981 44.9681 107.68 44.6996C107.379 44.4274 106.955 44.2914 106.407 44.2914C105.899 44.2914 105.501 44.4042 105.215 44.6298C104.932 44.8518 104.79 45.1615 104.79 45.559C104.79 45.8776 104.925 46.148 105.193 46.37C105.465 46.5884 105.925 46.7889 106.574 46.9716C107.225 47.1542 107.734 47.3565 108.099 47.5785C108.468 47.7969 108.74 48.0529 108.915 48.3466C109.094 48.6402 109.184 48.9857 109.184 49.3832C109.184 50.017 108.937 50.5254 108.443 50.9086C107.949 51.2881 107.288 51.4779 106.461 51.4779C105.924 51.4779 105.422 51.3759 104.957 51.1718C104.491 50.9641 104.131 50.6812 103.877 50.3231C103.627 49.965 103.501 49.5586 103.501 49.1039H104.538C104.538 49.5765 104.712 49.9507 105.059 50.2264C105.41 50.4986 105.877 50.6346 106.461 50.6346C107.005 50.6346 107.422 50.5236 107.712 50.3016C108.002 50.0796 108.147 49.7771 108.147 49.3939C108.147 49.0108 108.013 48.7154 107.744 48.5077C107.476 48.2964 106.989 48.0887 106.284 47.8846Z" fill="#686868"/>
</g>
<defs>
<filter id="filter0_d" x="32.326" y="19.1811" width="140.177" height="91.7334" filterUnits="userSpaceOnUse" color-interpolation-filters="sRGB">
<feFlood flood-opacity="0" result="BackgroundImageFix"/>
<feColorMatrix in="SourceAlpha" type="matrix" values="0 0 0 0 0 0 0 0 0 0 0 0 0 0 0 0 0 0 127 0"/>
<feOffset dy="4"/>
<feGaussianBlur stdDeviation="2"/>
<feColorMatrix type="matrix" values="0 0 0 0 0 0 0 0 0 0 0 0 0 0 0 0 0 0 0.25 0"/>
<feBlend mode="normal" in2="BackgroundImageFix" result="effect1_dropShadow"/>
<feBlend mode="normal" in="SourceGraphic" in2="effect1_dropShadow" result="shape"/>
</filter>
<filter id="filter1_d" x="44.4437" y="34.3531" width="112.923" height="27.1539" filterUnits="userSpaceOnUse" color-interpolation-filters="sRGB">
<feFlood flood-opacity="0" result="BackgroundImageFix"/>
<feColorMatrix in="SourceAlpha" type="matrix" values="0 0 0 0 0 0 0 0 0 0 0 0 0 0 0 0 0 0 127 0"/>
<feOffset/>
<feGaussianBlur stdDeviation="2.5"/>
<feColorMatrix type="matrix" values="0 0 0 0 1 0 0 0 0 0.824 0 0 0 0 0.2 0 0 0 0.43 0"/>
<feBlend mode="normal" in2="BackgroundImageFix" result="effect1_dropShadow"/>
<feBlend mode="normal" in="SourceGraphic" in2="effect1_dropShadow" result="shape"/>
</filter>
</defs>
</svg>
