<svg width="630" height="196" viewBox="0 0 630 196" fill="none" xmlns="http://www.w3.org/2000/svg">
<rect x="48.9807" y="85.5" width="404" height="46" fill="#FFFCF0" stroke="#FFC700"/>
<path d="M102 102V117" stroke="#BEBEBE"/>
<rect x="453.481" y="85" width="148" height="47" fill="#FFD233"/>
<path d="M507.477 109.842C507.354 110.895 506.964 111.708 506.308 112.282C505.656 112.852 504.788 113.137 503.703 113.137C502.527 113.137 501.584 112.715 500.873 111.872C500.167 111.029 499.813 109.901 499.813 108.488V107.531C499.813 106.606 499.978 105.793 500.306 105.091C500.638 104.389 501.108 103.851 501.714 103.478C502.32 103.099 503.022 102.91 503.819 102.91C504.877 102.91 505.724 103.206 506.362 103.799C507 104.387 507.372 105.202 507.477 106.246H506.157C506.043 105.453 505.795 104.879 505.412 104.523C505.034 104.168 504.503 103.99 503.819 103.99C502.981 103.99 502.322 104.3 501.844 104.92C501.37 105.54 501.133 106.422 501.133 107.565V108.529C501.133 109.609 501.358 110.468 501.81 111.106C502.261 111.744 502.892 112.063 503.703 112.063C504.432 112.063 504.991 111.899 505.378 111.571C505.77 111.239 506.03 110.662 506.157 109.842H507.477ZM508.741 109.233C508.741 108.509 508.882 107.857 509.165 107.278C509.452 106.7 509.849 106.253 510.354 105.938C510.865 105.624 511.446 105.467 512.098 105.467C513.105 105.467 513.918 105.815 514.538 106.513C515.162 107.21 515.475 108.137 515.475 109.295V109.384C515.475 110.104 515.336 110.751 515.058 111.325C514.784 111.895 514.39 112.339 513.875 112.658C513.365 112.977 512.777 113.137 512.111 113.137C511.109 113.137 510.295 112.788 509.671 112.091C509.051 111.394 508.741 110.471 508.741 109.322V109.233ZM510.013 109.384C510.013 110.204 510.202 110.863 510.58 111.359C510.963 111.856 511.473 112.104 512.111 112.104C512.754 112.104 513.264 111.854 513.643 111.353C514.021 110.847 514.21 110.14 514.21 109.233C514.21 108.422 514.016 107.766 513.629 107.265C513.246 106.759 512.736 106.506 512.098 106.506C511.473 106.506 510.97 106.754 510.587 107.251C510.204 107.748 510.013 108.459 510.013 109.384ZM518.257 105.604L518.298 106.533C518.863 105.822 519.601 105.467 520.513 105.467C522.076 105.467 522.864 106.349 522.878 108.112V113H521.613V108.105C521.609 107.572 521.486 107.178 521.244 106.923C521.007 106.668 520.636 106.54 520.13 106.54C519.72 106.54 519.36 106.649 519.05 106.868C518.74 107.087 518.498 107.374 518.325 107.729V113H517.061V105.604H518.257ZM526.501 103.812V105.604H527.882V106.581H526.501V111.168C526.501 111.464 526.562 111.688 526.686 111.838C526.809 111.984 527.018 112.057 527.314 112.057C527.46 112.057 527.661 112.029 527.916 111.975V113C527.583 113.091 527.26 113.137 526.945 113.137C526.38 113.137 525.954 112.966 525.667 112.624C525.38 112.282 525.236 111.797 525.236 111.168V106.581H523.89V105.604H525.236V103.812H526.501ZM530.739 113H529.475V105.604H530.739V113ZM529.372 103.642C529.372 103.437 529.434 103.263 529.557 103.122C529.684 102.981 529.871 102.91 530.117 102.91C530.363 102.91 530.55 102.981 530.678 103.122C530.805 103.263 530.869 103.437 530.869 103.642C530.869 103.847 530.805 104.018 530.678 104.154C530.55 104.291 530.363 104.359 530.117 104.359C529.871 104.359 529.684 104.291 529.557 104.154C529.434 104.018 529.372 103.847 529.372 103.642ZM533.966 105.604L534.007 106.533C534.572 105.822 535.31 105.467 536.222 105.467C537.785 105.467 538.573 106.349 538.587 108.112V113H537.322V108.105C537.318 107.572 537.195 107.178 536.953 106.923C536.716 106.668 536.345 106.54 535.839 106.54C535.429 106.54 535.069 106.649 534.759 106.868C534.449 107.087 534.207 107.374 534.034 107.729V113H532.77V105.604H533.966ZM545.061 112.269C544.568 112.847 543.846 113.137 542.894 113.137C542.105 113.137 541.504 112.909 541.089 112.453C540.679 111.993 540.471 111.314 540.467 110.416V105.604H541.731V110.382C541.731 111.503 542.187 112.063 543.099 112.063C544.065 112.063 544.707 111.703 545.026 110.983V105.604H546.291V113H545.088L545.061 112.269ZM551.288 113.137C550.285 113.137 549.47 112.809 548.841 112.152C548.212 111.492 547.897 110.61 547.897 109.507V109.274C547.897 108.541 548.036 107.887 548.314 107.312C548.597 106.734 548.989 106.283 549.49 105.959C549.996 105.631 550.543 105.467 551.131 105.467C552.092 105.467 552.84 105.784 553.373 106.417C553.906 107.05 554.173 107.957 554.173 109.138V109.664H549.162C549.18 110.393 549.392 110.983 549.798 111.435C550.208 111.881 550.728 112.104 551.356 112.104C551.803 112.104 552.181 112.013 552.491 111.831C552.801 111.649 553.072 111.407 553.305 111.106L554.077 111.708C553.457 112.66 552.528 113.137 551.288 113.137ZM551.131 106.506C550.62 106.506 550.192 106.693 549.846 107.066C549.499 107.436 549.285 107.955 549.203 108.625H552.908V108.529C552.872 107.887 552.699 107.39 552.389 107.039C552.079 106.684 551.66 106.506 551.131 106.506Z" fill="black"/>
<path d="M116.481 11C82.6763 30.4063 48.1389 42.7446 18.9252 69C6.37185 80.2821 -3.12492 96.9609 2.81405 114.778C5.73716 123.547 40.2425 119 48.3696 119C62.8489 119 74.5262 111 88.4807 111" stroke="black" stroke-linecap="round" stroke-linejoin="round"/>
<path d="M83.4807 104.5C84.0839 105.919 84.7314 107.536 86.2585 107.972C87.4571 108.315 86.4519 109.871 87.4807 110C89.2684 110.223 85.3582 119.019 84.9807 120" stroke="black" stroke-linecap="round" stroke-linejoin="round"/>
<path d="M577.481 109C589.969 108.139 602.42 105.948 613.981 111.778C619.977 114.802 625.827 118.777 627.87 125.5C632.038 139.221 620.659 153.165 612.258 162.944C608.164 167.711 603.833 171.792 599.12 175.917C597.728 177.134 596.301 179.5 594.258 179.5C592.648 179.5 591.77 181.054 590.258 181.417C588.793 181.768 586.985 181.5 585.481 181.5" stroke="black" stroke-linecap="round" stroke-linejoin="round"/>
<path d="M588.731 177.75C587.256 179.202 584.895 180.548 584.981 182.861C585.032 184.26 585.7 185.669 587.147 186.069C588.128 186.341 589.436 185.97 590.231 186.5" stroke="black" stroke-linecap="round" stroke-linejoin="round"/>
<path d="M125.481 1H116.481V20V28.5H125.481" stroke="black"/>
<path d="M575.481 170H584.481V195H575.481" stroke="black"/>
<path d="M128.262 15.3994H123.948V18.9268H128.959V20H122.636V10.0469H128.891V11.127H123.948V14.3262H128.262V15.3994ZM131.591 12.6035L131.632 13.5332C132.197 12.8223 132.935 12.4668 133.847 12.4668C135.41 12.4668 136.198 13.3486 136.212 15.1123V20H134.948V15.1055C134.943 14.5723 134.82 14.1781 134.578 13.9229C134.341 13.6676 133.97 13.54 133.464 13.54C133.054 13.54 132.694 13.6494 132.384 13.8682C132.074 14.0869 131.833 14.374 131.659 14.7295V20H130.395V12.6035H131.591ZM139.835 10.8125V12.6035H141.216V13.5811H139.835V18.168C139.835 18.4642 139.897 18.6875 140.02 18.8379C140.143 18.9837 140.352 19.0566 140.649 19.0566C140.795 19.0566 140.995 19.0293 141.25 18.9746V20C140.918 20.0911 140.594 20.1367 140.28 20.1367C139.714 20.1367 139.288 19.9658 139.001 19.624C138.714 19.2822 138.571 18.7969 138.571 18.168V13.5811H137.224V12.6035H138.571V10.8125H139.835ZM145.769 20.1367C144.766 20.1367 143.95 19.8086 143.322 19.1523C142.693 18.4915 142.378 17.6097 142.378 16.5068V16.2744C142.378 15.5407 142.517 14.8867 142.795 14.3125C143.078 13.7337 143.47 13.2826 143.971 12.959C144.477 12.6309 145.024 12.4668 145.612 12.4668C146.573 12.4668 147.321 12.7835 147.854 13.417C148.387 14.0505 148.654 14.9574 148.654 16.1377V16.6641H143.643C143.661 17.3932 143.873 17.9834 144.279 18.4346C144.689 18.8812 145.208 19.1045 145.837 19.1045C146.284 19.1045 146.662 19.0133 146.972 18.8311C147.282 18.6488 147.553 18.4072 147.785 18.1064L148.558 18.708C147.938 19.6605 147.008 20.1367 145.769 20.1367ZM145.612 13.5059C145.101 13.5059 144.673 13.6927 144.326 14.0664C143.98 14.4355 143.766 14.9551 143.684 15.625H147.389V15.5293C147.352 14.8867 147.179 14.39 146.869 14.0391C146.559 13.6836 146.14 13.5059 145.612 13.5059ZM153.698 13.7383C153.507 13.7064 153.3 13.6904 153.076 13.6904C152.247 13.6904 151.684 14.0436 151.388 14.75V20H150.123V12.6035H151.354L151.374 13.458C151.789 12.7972 152.377 12.4668 153.138 12.4668C153.384 12.4668 153.571 12.4987 153.698 12.5625V13.7383ZM159.523 18.9268H165.217V20H157.971V19.0156L163.426 11.127H158.06V10.0469H164.998V11.0107L159.523 18.9268ZM171.287 20C171.214 19.8542 171.155 19.5944 171.11 19.2207C170.522 19.8314 169.82 20.1367 169.004 20.1367C168.275 20.1367 167.676 19.9316 167.206 19.5215C166.741 19.1068 166.509 18.5827 166.509 17.9492C166.509 17.179 166.801 16.582 167.384 16.1582C167.972 15.7298 168.797 15.5156 169.859 15.5156H171.089V14.9346C171.089 14.4925 170.957 14.1416 170.693 13.8818C170.428 13.6175 170.039 13.4854 169.524 13.4854C169.073 13.4854 168.694 13.5993 168.389 13.8271C168.084 14.055 167.931 14.3307 167.931 14.6543H166.659C166.659 14.2852 166.789 13.9297 167.049 13.5879C167.313 13.2415 167.669 12.9681 168.115 12.7676C168.567 12.5671 169.061 12.4668 169.599 12.4668C170.451 12.4668 171.119 12.681 171.602 13.1094C172.085 13.5332 172.336 14.1188 172.354 14.8662V18.2705C172.354 18.9495 172.44 19.4896 172.614 19.8906V20H171.287ZM169.189 19.0361C169.585 19.0361 169.961 18.9336 170.317 18.7285C170.672 18.5234 170.93 18.2568 171.089 17.9287V16.4111H170.098C168.548 16.4111 167.774 16.8646 167.774 17.7715C167.774 18.168 167.906 18.4779 168.17 18.7012C168.434 18.9245 168.774 19.0361 169.189 19.0361ZM175.532 12.6035L175.573 13.5332C176.139 12.8223 176.877 12.4668 177.788 12.4668C179.351 12.4668 180.14 13.3486 180.154 15.1123V20H178.889V15.1055C178.884 14.5723 178.761 14.1781 178.52 13.9229C178.283 13.6676 177.911 13.54 177.406 13.54C176.995 13.54 176.635 13.6494 176.325 13.8682C176.016 14.0869 175.774 14.374 175.601 14.7295V20H174.336V12.6035H175.532ZM183.25 18.9678H187.577V20H181.705V19.0703L185.786 13.6494H181.767V12.6035H187.372V13.499L183.25 18.9678ZM190.38 20H189.115V12.6035H190.38V20ZM189.013 10.6416C189.013 10.4365 189.074 10.2633 189.198 10.1221C189.325 9.98079 189.512 9.91016 189.758 9.91016C190.004 9.91016 190.191 9.98079 190.319 10.1221C190.446 10.2633 190.51 10.4365 190.51 10.6416C190.51 10.8467 190.446 11.0176 190.319 11.1543C190.191 11.291 190.004 11.3594 189.758 11.3594C189.512 11.3594 189.325 11.291 189.198 11.1543C189.074 11.0176 189.013 10.8467 189.013 10.6416ZM198.672 16.3838C198.672 17.514 198.412 18.4232 197.893 19.1113C197.373 19.7949 196.676 20.1367 195.801 20.1367C194.867 20.1367 194.144 19.8063 193.634 19.1455L193.573 20H192.41V9.5H193.675V13.417C194.185 12.7835 194.89 12.4668 195.787 12.4668C196.685 12.4668 197.389 12.8063 197.9 13.4854C198.415 14.1644 198.672 15.0941 198.672 16.2744V16.3838ZM197.407 16.2402C197.407 15.3789 197.241 14.7135 196.908 14.2441C196.576 13.7747 196.097 13.54 195.473 13.54C194.639 13.54 194.04 13.9274 193.675 14.7021V17.9014C194.062 18.6761 194.666 19.0635 195.487 19.0635C196.093 19.0635 196.564 18.8288 196.902 18.3594C197.239 17.89 197.407 17.1836 197.407 16.2402ZM204.838 20C204.765 19.8542 204.706 19.5944 204.66 19.2207C204.073 19.8314 203.371 20.1367 202.555 20.1367C201.826 20.1367 201.226 19.9316 200.757 19.5215C200.292 19.1068 200.06 18.5827 200.06 17.9492C200.06 17.179 200.351 16.582 200.935 16.1582C201.523 15.7298 202.348 15.5156 203.409 15.5156H204.64V14.9346C204.64 14.4925 204.508 14.1416 204.243 13.8818C203.979 13.6175 203.589 13.4854 203.074 13.4854C202.623 13.4854 202.245 13.5993 201.94 13.8271C201.634 14.055 201.482 14.3307 201.482 14.6543H200.21C200.21 14.2852 200.34 13.9297 200.6 13.5879C200.864 13.2415 201.22 12.9681 201.666 12.7676C202.117 12.5671 202.612 12.4668 203.15 12.4668C204.002 12.4668 204.67 12.681 205.153 13.1094C205.636 13.5332 205.886 14.1188 205.905 14.8662V18.2705C205.905 18.9495 205.991 19.4896 206.164 19.8906V20H204.838ZM202.74 19.0361C203.136 19.0361 203.512 18.9336 203.867 18.7285C204.223 18.5234 204.48 18.2568 204.64 17.9287V16.4111H203.649C202.099 16.4111 201.324 16.8646 201.324 17.7715C201.324 18.168 201.457 18.4779 201.721 18.7012C201.985 18.9245 202.325 19.0361 202.74 19.0361ZM211.462 13.7383C211.271 13.7064 211.063 13.6904 210.84 13.6904C210.011 13.6904 209.448 14.0436 209.152 14.75V20H207.887V12.6035H209.117L209.138 13.458C209.553 12.7972 210.141 12.4668 210.902 12.4668C211.148 12.4668 211.335 12.4987 211.462 12.5625V13.7383ZM217.71 20H216.398V10.0469H217.71V20ZM219.611 16.2402C219.611 15.1055 219.879 14.194 220.417 13.5059C220.955 12.8132 221.659 12.4668 222.53 12.4668C223.395 12.4668 224.081 12.763 224.587 13.3555V9.5H225.852V20H224.69L224.628 19.207C224.122 19.8268 223.418 20.1367 222.516 20.1367C221.659 20.1367 220.96 19.7858 220.417 19.084C219.879 18.3822 219.611 17.4661 219.611 16.3359V16.2402ZM220.875 16.3838C220.875 17.2223 221.048 17.8786 221.395 18.3525C221.741 18.8265 222.22 19.0635 222.83 19.0635C223.632 19.0635 224.218 18.7035 224.587 17.9834V14.5859C224.209 13.8887 223.628 13.54 222.844 13.54C222.224 13.54 221.741 13.7793 221.395 14.2578C221.048 14.7363 220.875 15.445 220.875 16.3838Z" fill="black"/>
<path d="M522.513 178.127H519.314V187H518.008V178.127H514.816V177.047H522.513V178.127ZM525.056 180.499C525.616 179.811 526.346 179.467 527.243 179.467C528.807 179.467 529.595 180.349 529.609 182.112V187H528.344V182.105C528.339 181.572 528.216 181.178 527.975 180.923C527.738 180.668 527.366 180.54 526.861 180.54C526.45 180.54 526.09 180.649 525.781 180.868C525.471 181.087 525.229 181.374 525.056 181.729V187H523.791V176.5H525.056V180.499ZM534.572 187.137C533.569 187.137 532.753 186.809 532.124 186.152C531.495 185.492 531.181 184.61 531.181 183.507V183.274C531.181 182.541 531.32 181.887 531.598 181.312C531.88 180.734 532.272 180.283 532.774 179.959C533.28 179.631 533.826 179.467 534.414 179.467C535.376 179.467 536.123 179.784 536.656 180.417C537.19 181.05 537.456 181.957 537.456 183.138V183.664H532.446C532.464 184.393 532.676 184.983 533.081 185.435C533.491 185.881 534.011 186.104 534.64 186.104C535.087 186.104 535.465 186.013 535.775 185.831C536.085 185.649 536.356 185.407 536.588 185.106L537.361 185.708C536.741 186.66 535.811 187.137 534.572 187.137ZM534.414 180.506C533.904 180.506 533.476 180.693 533.129 181.066C532.783 181.436 532.569 181.955 532.487 182.625H536.192V182.529C536.155 181.887 535.982 181.39 535.672 181.039C535.362 180.684 534.943 180.506 534.414 180.506ZM540.122 179.604L540.163 180.533C540.728 179.822 541.467 179.467 542.378 179.467C543.941 179.467 544.73 180.349 544.743 182.112V187H543.479V182.105C543.474 181.572 543.351 181.178 543.11 180.923C542.873 180.668 542.501 180.54 541.995 180.54C541.585 180.54 541.225 180.649 540.915 180.868C540.605 181.087 540.364 181.374 540.191 181.729V187H538.926V179.604H540.122ZM557.643 183.842C557.52 184.895 557.13 185.708 556.474 186.282C555.822 186.852 554.954 187.137 553.869 187.137C552.694 187.137 551.75 186.715 551.039 185.872C550.333 185.029 549.98 183.901 549.98 182.488V181.531C549.98 180.606 550.144 179.793 550.472 179.091C550.805 178.389 551.274 177.851 551.88 177.478C552.486 177.099 553.188 176.91 553.986 176.91C555.043 176.91 555.891 177.206 556.529 177.799C557.167 178.387 557.538 179.202 557.643 180.246H556.323C556.21 179.453 555.961 178.879 555.578 178.523C555.2 178.168 554.669 177.99 553.986 177.99C553.147 177.99 552.489 178.3 552.01 178.92C551.536 179.54 551.299 180.422 551.299 181.565V182.529C551.299 183.609 551.525 184.468 551.976 185.106C552.427 185.744 553.058 186.063 553.869 186.063C554.599 186.063 555.157 185.899 555.544 185.571C555.936 185.239 556.196 184.662 556.323 183.842H557.643ZM560.616 187H559.352V176.5H560.616V187ZM564.021 187H562.756V179.604H564.021V187ZM562.654 177.642C562.654 177.437 562.715 177.263 562.838 177.122C562.966 176.981 563.153 176.91 563.399 176.91C563.645 176.91 563.832 176.981 563.959 177.122C564.087 177.263 564.151 177.437 564.151 177.642C564.151 177.847 564.087 178.018 563.959 178.154C563.832 178.291 563.645 178.359 563.399 178.359C563.153 178.359 562.966 178.291 562.838 178.154C562.715 178.018 562.654 177.847 562.654 177.642ZM569.018 186.104C569.469 186.104 569.863 185.968 570.2 185.694C570.538 185.421 570.725 185.079 570.761 184.669H571.957C571.934 185.093 571.789 185.496 571.52 185.879C571.251 186.262 570.891 186.567 570.44 186.795C569.993 187.023 569.519 187.137 569.018 187.137C568.011 187.137 567.209 186.802 566.612 186.132C566.019 185.457 565.723 184.537 565.723 183.37V183.158C565.723 182.438 565.855 181.798 566.119 181.237C566.384 180.677 566.762 180.242 567.254 179.932C567.751 179.622 568.337 179.467 569.011 179.467C569.84 179.467 570.529 179.715 571.075 180.212C571.627 180.709 571.921 181.354 571.957 182.146H570.761C570.725 181.668 570.542 181.276 570.214 180.971C569.891 180.661 569.49 180.506 569.011 180.506C568.368 180.506 567.869 180.738 567.514 181.203C567.163 181.663 566.988 182.331 566.988 183.206V183.445C566.988 184.298 567.163 184.954 567.514 185.414C567.865 185.874 568.366 186.104 569.018 186.104ZM575.444 183.575L574.651 184.402V187H573.386V176.5H574.651V182.851L575.327 182.037L577.631 179.604H579.169L576.291 182.693L579.504 187H578.021L575.444 183.575Z" fill="black"/>
</svg>
